<svg xmlns="http://www.w3.org/2000/svg" width="300" height="300" viewBox="0 0 300 300">
  <defs>
    <linearGradient id="gradient" x1="0%" y1="0%" x2="100%" y2="100%">
      <stop offset="0%" style="stop-color:#6366F1"/>
      <stop offset="100%" style="stop-color:#8B5CF6"/>
    </linearGradient>
    <linearGradient id="accentGradient" x1="0%" y1="0%" x2="100%" y2="100%">
      <stop offset="0%" style="stop-color:#8B5CF6"/>
      <stop offset="100%" style="stop-color:#EC4899"/>
    </linearGradient>
    <filter id="shadow" x="-20%" y="-20%" width="140%" height="140%">
      <feGaussianBlur in="SourceAlpha" stdDeviation="5"/>
      <feOffset dx="0" dy="3" result="offsetblur"/>
      <feComponentTransfer>
        <feFuncA type="linear" slope="0.4"/>
      </feComponentTransfer>
      <feMerge> 
        <feMergeNode/>
        <feMergeNode in="SourceGraphic"/> 
      </feMerge>
    </filter>
    <filter id="glow" x="-20%" y="-20%" width="140%" height="140%">
      <feGaussianBlur stdDeviation="8" result="blur"/>
      <feComposite in="SourceGraphic" in2="blur" operator="over"/>
    </filter>
  </defs>
  
  <!-- Glow effect -->
  <circle cx="150" cy="150" r="130" fill="url(#gradient)" opacity="0.2" filter="url(#glow)"/>
  
  <!-- Main circular background -->
  <circle cx="150" cy="150" r="120" fill="url(#gradient)" filter="url(#shadow)"/>
  
  <!-- Brain wave/connection pattern -->
  <path d="M75 150 Q 112.5 105, 150 150 T 225 150" 
        stroke="white" stroke-width="8" fill="none" 
        stroke-linecap="round"/>
  
  <!-- Pulse circles -->
  <circle cx="75" cy="150" r="12" fill="white"/>
  <circle cx="150" cy="150" r="12" fill="white"/>
  <circle cx="225" cy="150" r="12" fill="white"/>
  
  <!-- Smaller accent connections -->
  <path d="M75 150 Q 50 180, 105 190" 
        stroke="rgba(255,255,255,0.6)" stroke-width="4" fill="none" 
        stroke-linecap="round" stroke-dasharray="1,6"/>
  
  <path d="M225 150 Q 250 120, 195 110" 
        stroke="rgba(255,255,255,0.6)" stroke-width="4" fill="none" 
        stroke-linecap="round" stroke-dasharray="1,6"/>
  
  <!-- A letter stylized -->
  <path d="M150 90 L180 210 H160 L153 180 H125 L118 210 H98 L128 90 Z" 
        fill="white" opacity="0.95"/>
  
  <path d="M127 160 L138 110 L149 160 Z" 
        fill="url(#accentGradient)"/>
        
  <!-- Small accent dots -->
  <circle cx="105" cy="190" r="5" fill="white"/>
  <circle cx="195" cy="110" r="5" fill="white"/>
</svg> 